<svg width="27" height="28" viewBox="0 0 27 28" fill="none" xmlns="http://www.w3.org/2000/svg">
<path fill-rule="evenodd" clip-rule="evenodd" d="M0.166626 13.9993C0.166626 6.63935 6.13996 0.666016 13.5 0.666016C20.86 0.666016 26.8333 6.63935 26.8333 13.9993C26.8333 21.3594 20.86 27.3327 13.5 27.3327C6.13996 27.3327 0.166626 21.3594 0.166626 13.9993ZM5.09996 14.9327L9.88663 19.7193C10.4066 20.2393 11.26 20.2393 11.7666 19.7193L21.8866 9.59935C22.4066 9.07935 22.4066 8.23935 21.8866 7.71935C21.3666 7.19935 20.5266 7.19935 20.0066 7.71935L10.8333 16.8927L6.97996 13.0527C6.45996 12.5327 5.61996 12.5327 5.09996 13.0527C4.85029 13.3018 4.70998 13.64 4.70998 13.9927C4.70998 14.3454 4.85029 14.6836 5.09996 14.9327Z" fill="#5C804D"/>
</svg>